<svg width="81" height="42" viewBox="0 0 81 42" fill="none" xmlns="http://www.w3.org/2000/svg">
<g clip-path="url(#clip0)">
<path d="M24.0977 34.5815C23.8192 37.1522 22.7952 39.5041 21.7029 41.7697C21.6667 41.8468 21.6296 41.9228 21.5915 42H10.2378C10.0082 41.9297 9.78152 41.8526 9.5558 41.7697C8.27344 41.3097 7.06279 40.608 5.9709 39.6918C1.79388 36.146 0.186564 29.4459 0.912553 23.4422C1.36398 19.7123 2.75336 15.904 5.45889 13.8951C6.88739 12.8325 8.72233 12.4872 10.3668 12.8821C10.4098 12.8913 10.4528 12.9028 10.4967 12.9131C11.9115 13.2884 13.172 14.2209 13.8892 15.7233C15.1789 18.4229 14.4109 21.7672 13.7768 24.7719C13.1446 27.7766 12.8016 31.373 14.6366 33.5891C14.0308 31.4881 14.6288 28.9819 16.0759 27.5613C17.1692 26.4895 18.6915 26.0877 20.0799 26.4204C20.2128 26.4538 20.3438 26.4918 20.4727 26.5379C20.7844 26.6454 21.085 26.7937 21.3687 26.9799C23.5329 28.404 24.4094 31.6838 24.0977 34.5815Z" fill="#F2F2F2"/>
<g filter="url(#filter0_d)">
<path d="M17.3656 41.7698C17.6802 41.8562 17.9958 41.9321 18.3134 42.0001H16.5966C16.3719 41.9287 16.1481 41.8527 15.9264 41.7698C15.4388 41.5902 14.9587 41.3842 14.4861 41.1516C12.5906 40.2145 10.8446 38.8077 9.52355 36.9358C8.87749 36.0289 8.34992 35.0135 7.95827 33.9231C7.53358 32.6906 7.26368 31.3918 7.15709 30.0676C6.91769 27.3507 7.16196 24.559 7.61825 21.8905C8.08913 19.1247 8.84924 16.4383 9.88118 13.8929C10.0053 13.5879 10.1336 13.2847 10.2661 12.9835C10.2753 12.9587 10.2891 12.9366 10.3065 12.9191C10.3239 12.9015 10.3446 12.8889 10.3668 12.8822C10.4119 12.8719 10.4586 12.883 10.4967 12.9132C10.5425 12.9442 10.5764 12.9946 10.5915 13.0542C10.6066 13.1137 10.6017 13.1779 10.5778 13.2333C9.51385 15.678 8.70732 18.2667 8.17616 20.9419C7.65637 23.5517 7.36128 26.2824 7.4619 28.9659C7.55766 31.4733 8.11366 33.9392 9.37504 35.9895C10.527 37.8614 12.1177 39.3373 13.8774 40.3423C14.9912 40.9702 16.1613 41.449 17.3656 41.7698V41.7698Z" fill="#A7A2F7"/>
</g>
<path d="M21.1333 41.9999H20.6271C20.5704 41.9239 20.5157 41.8468 20.462 41.7697C19.3091 40.1193 18.5281 38.153 18.1912 36.0527C17.7821 33.4316 18.1004 30.725 19.0989 28.3337C19.3775 27.6632 19.7058 27.023 20.0799 26.4204C20.2128 26.4538 20.3438 26.4918 20.4727 26.5378C19.4887 28.074 18.8268 29.8625 18.541 31.7575C18.2861 33.5331 18.3709 35.3534 18.7891 37.0855C19.2073 38.8177 19.9484 40.418 20.9584 41.7697C21.015 41.8468 21.0736 41.9239 21.1333 41.9999Z" fill="#A7A2F7"/>
<path d="M66.7277 40.0421C66.8012 40.7205 67.0714 41.3413 67.3597 41.9392C67.3692 41.9596 67.3791 41.9796 67.3891 42H70.3855C70.4461 41.9814 70.506 41.9611 70.5655 41.9392C70.904 41.8178 71.2235 41.6326 71.5117 41.3908C72.614 40.455 73.0382 38.6867 72.8466 37.1022C72.7275 36.1178 72.3608 35.1128 71.6468 34.5826C71.259 34.3043 70.7964 34.2089 70.3515 34.3152C70.3401 34.3176 70.3288 34.3207 70.3172 34.3234C70.132 34.3656 69.9565 34.4535 69.8022 34.5813C69.6479 34.7092 69.5183 34.874 69.4219 35.0651C69.0815 35.7775 69.2842 36.6602 69.4515 37.4532C69.6184 38.2462 69.7089 39.1953 69.2246 39.7802C69.2956 39.5356 69.31 39.2731 69.2664 39.0198C69.2227 38.7665 69.1226 38.5314 68.9764 38.3388C68.8301 38.1461 68.6429 38.0028 68.434 37.9237C68.2252 37.8445 68.0022 37.8323 67.788 37.8883C67.753 37.8971 67.7184 37.9071 67.6844 37.9192C67.6021 37.9476 67.5228 37.9868 67.4479 38.0359C66.8767 38.4117 66.6454 39.2774 66.7277 40.0421Z" fill="#F2F2F2"/>
<path d="M68.5044 41.9393C68.4214 41.9621 68.3381 41.9821 68.2543 42.0001H68.7073C68.7667 41.9812 68.8257 41.9612 68.8842 41.9393C69.0129 41.8919 69.1396 41.8375 69.2643 41.7761C69.7702 41.5342 70.2194 41.1526 70.5741 40.6635C70.7446 40.4242 70.8838 40.1562 70.9872 39.8684C71.0992 39.5431 71.1705 39.2004 71.1986 38.8509C71.25 38.1284 71.209 37.4009 71.0769 36.6928C70.9526 35.9628 70.752 35.2539 70.4797 34.5821C70.4469 34.5016 70.413 34.4216 70.3781 34.3421C70.3757 34.3355 70.372 34.3297 70.3674 34.3251C70.3628 34.3204 70.3574 34.3171 70.3515 34.3153C70.3396 34.3126 70.3273 34.3155 70.3172 34.3235C70.3051 34.3317 70.2962 34.345 70.2922 34.3607C70.2882 34.3764 70.2895 34.3934 70.2958 34.408C70.5766 35.0532 70.7895 35.7364 70.9297 36.4424C71.074 37.1349 71.1374 37.8474 71.1182 38.5601C71.1078 39.223 70.9323 39.8676 70.6132 40.4138C70.303 40.9056 69.895 41.3001 69.425 41.5626C69.131 41.7283 68.8222 41.8546 68.5044 41.9393Z" fill="#A7A2F7"/>
<path d="M67.5101 42H67.6437C67.6587 41.98 67.6731 41.9596 67.6873 41.9393C67.9916 41.5037 68.1977 40.9847 68.2866 40.4304C68.3946 39.7387 68.3106 39.0244 68.047 38.3933C67.9735 38.2163 67.8869 38.0473 67.7881 37.8883C67.7531 37.8971 67.7185 37.9071 67.6845 37.9193C67.9442 38.3247 68.1189 38.7967 68.1943 39.2969C68.2615 39.7655 68.2392 40.2459 68.1288 40.703C68.0184 41.1602 67.8228 41.5825 67.5563 41.9393C67.5413 41.9596 67.5259 41.98 67.5101 42Z" fill="#A7A2F7"/>
<path d="M39.7193 24.4644H30.3411L30.2417 21.0671C30.2374 20.9198 30.2603 20.7732 30.3087 20.6373C30.3571 20.5014 30.4299 20.3795 30.5221 20.28C30.6143 20.1804 30.7237 20.1056 30.8428 20.0607C30.9619 20.0157 31.0879 20.0017 31.2121 20.0196L36.6695 20.807H36.6702C37.4792 20.8096 38.2545 21.1899 38.826 21.8647C39.3975 22.5394 39.7187 23.4536 39.7193 24.4069V24.4644Z" fill="#6C63FF"/>
<path d="M35.5394 12.4136H28.9987C28.9117 12.4135 28.8255 12.4337 28.7452 12.4729C28.6648 12.5121 28.5918 12.5696 28.5303 12.6421C28.4687 12.7146 28.42 12.8006 28.3867 12.8953C28.3534 12.99 28.3363 13.0915 28.3363 13.194V20.9005C28.3363 21.003 28.3534 21.1045 28.3867 21.1992C28.42 21.2939 28.4687 21.3799 28.5303 21.4524C28.5918 21.5249 28.6648 21.5824 28.7452 21.6216C28.8255 21.6608 28.9117 21.681 28.9987 21.6809H35.5394C35.6264 21.681 35.7126 21.6608 35.793 21.6216C35.8733 21.5824 35.9464 21.5249 36.0079 21.4524C36.0694 21.3799 36.1182 21.2939 36.1514 21.1992C36.1847 21.1045 36.2018 21.003 36.2018 20.9005V13.194C36.2018 13.0915 36.1847 12.99 36.1514 12.8953C36.1182 12.8006 36.0694 12.7146 36.0079 12.6421C35.9464 12.5696 35.8733 12.5121 35.793 12.4729C35.7126 12.4337 35.6264 12.4135 35.5394 12.4136Z" fill="#CCCCCC"/>
<path d="M34.0663 18.1763L30.9781 18.8848C30.7949 18.9266 30.6052 18.8811 30.4504 18.7582C30.2957 18.6353 30.1887 18.4452 30.1528 18.2294L29.9154 16.7931C29.88 16.5773 29.9186 16.3537 30.0229 16.1714C30.1272 15.9891 30.2886 15.863 30.4717 15.8207L33.5599 15.1122C33.7431 15.0704 33.9328 15.1159 34.0875 15.2388C34.2423 15.3617 34.3493 15.5518 34.3852 15.7676L34.6226 17.2039C34.658 17.4197 34.6194 17.6433 34.5151 17.8256C34.4108 18.0079 34.2494 18.134 34.0663 18.1763Z" fill="#3F3D56"/>
<path d="M33.4486 16.4794L31.0918 17.0201C31.0487 17.03 31.004 17.0193 30.9676 16.9904C30.9312 16.9615 30.906 16.9167 30.8976 16.8659C30.8892 16.8151 30.8983 16.7625 30.9228 16.7196C30.9474 16.6767 30.9854 16.647 31.0285 16.6371L33.3853 16.0964C33.4284 16.0865 33.473 16.0972 33.5095 16.1261C33.5459 16.155 33.571 16.1998 33.5794 16.2506C33.5878 16.3014 33.5788 16.354 33.5542 16.3969C33.5297 16.4398 33.4917 16.4695 33.4486 16.4794Z" fill="white"/>
<path d="M32.9905 17.2802L31.7715 17.5599C31.7284 17.5698 31.6837 17.5591 31.6473 17.5301C31.6108 17.5012 31.5857 17.4564 31.5773 17.4056C31.5689 17.3549 31.578 17.3022 31.6025 17.2593C31.627 17.2164 31.6651 17.1867 31.7082 17.1769L32.9272 16.8972C32.9485 16.8923 32.9705 16.8924 32.9918 16.8975C33.0131 16.9026 33.0334 16.9126 33.0514 16.9269C33.0694 16.9412 33.0849 16.9596 33.0969 16.9809C33.1089 17.0023 33.1172 17.0262 33.1214 17.0514C33.1255 17.0765 33.1255 17.1024 33.1211 17.1275C33.1168 17.1526 33.1083 17.1765 33.0962 17.1977C33.084 17.2189 33.0684 17.2372 33.0503 17.2513C33.0322 17.2655 33.0118 17.2753 32.9905 17.2802Z" fill="white"/>
<path d="M36.2018 13.194V14.2183H28.3363V13.194C28.3363 13.0915 28.3534 12.99 28.3867 12.8953C28.42 12.8006 28.4687 12.7146 28.5303 12.6421C28.5918 12.5696 28.6648 12.5121 28.7452 12.4729C28.8255 12.4337 28.9117 12.4135 28.9987 12.4136H35.5395C35.6264 12.4135 35.7126 12.4337 35.793 12.4729C35.8733 12.5121 35.9463 12.5696 36.0079 12.6421C36.0694 12.7146 36.1182 12.8006 36.1514 12.8953C36.1847 12.99 36.2018 13.0915 36.2018 13.194Z" fill="#B3B3B3"/>
<path d="M51.9085 14.539C51.8631 14.3663 51.7861 14.2074 51.6829 14.0736C51.5798 13.9397 51.4529 13.8342 51.3114 13.7643C51.1699 13.6944 51.0171 13.662 50.8637 13.6692C50.7104 13.6765 50.5603 13.7233 50.424 13.8063L41.4254 10.0023L41.0291 12.651L49.999 15.5573C50.1325 15.8179 50.3425 16.0117 50.5893 16.102C50.836 16.1924 51.1022 16.173 51.3376 16.0474C51.573 15.9219 51.7611 15.699 51.8663 15.421C51.9715 15.143 51.9865 14.8292 51.9085 14.539Z" fill="#FFB8B8"/>
<path opacity="0.2" d="M51.9085 14.539C51.8631 14.3663 51.7861 14.2074 51.6829 14.0736C51.5798 13.9397 51.4529 13.8342 51.3114 13.7643C51.1699 13.6944 51.0171 13.662 50.8637 13.6692C50.7104 13.6765 50.5603 13.7233 50.424 13.8063L41.4254 10.0023L41.0291 12.651L49.999 15.5573C50.1325 15.8179 50.3425 16.0117 50.5893 16.102C50.836 16.1924 51.1022 16.173 51.3376 16.0474C51.573 15.9219 51.7611 15.699 51.8663 15.421C51.9715 15.143 51.9865 14.8292 51.9085 14.539Z" fill="black"/>
<path d="M43.0226 10.485L42.1728 13.1006C42.1486 13.175 42.1111 13.2425 42.0629 13.2983C42.0146 13.3541 41.9566 13.3969 41.893 13.424C41.8294 13.451 41.7616 13.4616 41.6942 13.455C41.6268 13.4484 41.5614 13.4247 41.5025 13.3856L39.4373 12.0161C39.1148 11.8682 38.8554 11.5757 38.7157 11.2027C38.576 10.8297 38.5676 10.4066 38.6922 10.0263C38.8169 9.64599 39.0644 9.33942 39.3806 9.17381C39.6968 9.0082 40.0558 8.99706 40.3789 9.14283L42.6851 9.74546C42.7511 9.76273 42.8132 9.79658 42.8671 9.84467C42.921 9.89277 42.9655 9.954 42.9975 10.0242C43.0296 10.0944 43.0484 10.1719 43.0527 10.2514C43.057 10.3309 43.0467 10.4106 43.0226 10.485Z" fill="#EF0B0B"/>
<path d="M52.6168 16.9608L49.3925 18.6877L49.8158 20.5654C50.6333 24.1915 50.8502 27.9692 50.4548 31.692L52.8122 32.2721L54.7664 26.4009L54.0824 19.7238L52.6168 16.9608Z" fill="#A7A2F7"/>
<path d="M58.9434 25.6526C56.8249 25.6526 55.0984 27.4671 55.0146 29.7394H62.8721C62.7884 27.4671 61.0619 25.6526 58.9434 25.6526Z" fill="#31BF8C"/>
<path d="M57.2942 26.0443C57.1839 15.787 52.2259 16.7307 52.2259 16.7307C52.2259 16.7307 52.3186 19.9234 52.3632 20.0227C55.5226 27.0658 50.3084 35.3229 43.6711 33.8039C43.546 33.7752 43.4257 33.7462 43.3104 33.7167C42.4694 33.5098 41.7269 32.9333 41.2339 32.1043C40.7408 31.2753 40.5343 30.2562 40.6563 29.2542C41.3102 23.0681 38.0582 23.1775 38.0582 23.1775H33.3031L30.8337 20.559C30.7465 20.4665 30.6415 20.4007 30.5277 20.3671C30.414 20.3336 30.295 20.3334 30.1811 20.3666C30.0673 20.3998 29.9621 20.4653 29.8747 20.5575C29.7873 20.6496 29.7204 20.7656 29.6799 20.8952L29.3622 21.9112C29.3622 21.9112 24.6722 22.4868 25.0631 27.8976H26.513C26.5095 28.0513 26.5148 28.2051 26.5287 28.358L37.3499 28.2544C37.9842 28.2483 38.5442 28.8539 38.5468 29.6013C38.5474 29.7832 38.5169 29.9635 38.4571 30.1312C38.3972 30.299 38.3093 30.4508 38.1985 30.5775C38.0877 30.7043 37.9564 30.8035 37.8124 30.869C37.6683 30.9346 37.5145 30.9653 37.3602 30.9593L35.6155 30.8907C35.0781 33.7112 36.3972 35.6108 37.8506 36.8051C39.219 37.9134 40.8428 38.501 42.5032 38.4888H47.2428C53.3984 38.4888 54.4732 32.3873 54.4732 32.3873C57.6976 30.7756 57.2942 26.0443 57.2942 26.0443Z" fill="#31BF8C"/>
<path d="M58.6503 41.8274C61.6857 41.8274 64.1463 38.9281 64.1463 35.3517C64.1463 31.7753 61.6857 28.8761 58.6503 28.8761C55.6149 28.8761 53.1542 31.7753 53.1542 35.3517C53.1542 38.9281 55.6149 41.8274 58.6503 41.8274Z" fill="#7C7676"/>
<path d="M58.6502 36.9389C59.3941 36.9389 59.9972 36.2283 59.9972 35.3517C59.9972 34.4751 59.3941 33.7645 58.6502 33.7645C57.9062 33.7645 57.3031 34.4751 57.3031 35.3517C57.3031 36.2283 57.9062 36.9389 58.6502 36.9389Z" fill="white"/>
<path d="M30.9011 41.8273C34.3951 41.8273 37.2277 38.49 37.2277 34.3731C37.2277 30.2563 34.3951 26.9189 30.9011 26.9189C27.407 26.9189 24.5745 30.2563 24.5745 34.3731C24.5745 38.49 27.407 41.8273 30.9011 41.8273Z" fill="#7C7676"/>
<path d="M30.9012 36.2001C31.7576 36.2001 32.4519 35.3822 32.4519 34.3731C32.4519 33.3641 31.7576 32.5461 30.9012 32.5461C30.0448 32.5461 29.3506 33.3641 29.3506 34.3731C29.3506 35.3822 30.0448 36.2001 30.9012 36.2001Z" fill="white"/>
<path d="M49.4015 19.1979L48.2414 15.4853C48.1809 15.2918 48.1534 15.0861 48.1604 14.8801C48.1674 14.6741 48.2087 14.4717 48.2821 14.2845C48.3555 14.0973 48.4594 13.929 48.588 13.7891C48.7166 13.6493 48.8673 13.5406 49.0315 13.4694L52.3575 12.0268C52.6465 11.9014 52.9535 11.8443 53.2612 11.8588C53.5689 11.8732 53.8711 11.9589 54.1507 12.111C54.4303 12.2631 54.6816 12.4786 54.8905 12.7452C55.0994 13.0117 55.2617 13.3242 55.3681 13.6646C55.464 13.9702 55.513 14.2934 55.5128 14.6193C55.5115 15.033 55.4321 15.4411 55.2802 15.8141C55.1283 16.1871 54.9077 16.5155 54.6346 16.7755C54.4373 16.962 54.2155 17.1093 53.978 17.2117L49.4015 19.1979Z" fill="#31BF8C"/>
<path d="M55.4639 14.6193C55.4637 15.0246 55.3863 15.4246 55.2375 15.79C55.0887 16.1554 54.8722 16.4768 54.6041 16.7307C54.1927 16.6028 53.8098 16.3709 53.4822 16.0511C53.1545 15.7313 52.8899 15.3313 52.7067 14.8788C52.5235 14.4263 52.4262 13.9323 52.4214 13.431C52.4167 12.9298 52.5047 12.4333 52.6792 11.9761C53.0144 11.8902 53.3616 11.8939 53.6953 11.9868C54.0291 12.0797 54.341 12.2595 54.6081 12.5131C54.8752 12.7666 55.0907 13.0873 55.2388 13.4518C55.3869 13.8163 55.4638 14.2152 55.4639 14.6193Z" fill="#A7A2F7"/>
<path d="M25.8937 28.6457C26.6491 28.6457 27.2616 27.7695 27.2616 26.6886C27.2616 25.6078 26.6491 24.7316 25.8937 24.7316C25.1382 24.7316 24.5258 25.6078 24.5258 26.6886C24.5258 27.7695 25.1382 28.6457 25.8937 28.6457Z" fill="#A7A2F7"/>
<path d="M43.9757 33.6164H45.1736L45.7435 29.9558L43.9755 29.9559L43.9757 33.6164Z" fill="#FFB8B8"/>
<path d="M43.67 33.1555L46.0291 33.1554H46.0292C46.2266 33.1554 46.4221 33.2012 46.6045 33.2902C46.7869 33.3792 46.9526 33.5097 47.0922 33.6742C47.2319 33.8387 47.3426 34.0339 47.4181 34.2488C47.4937 34.4638 47.5326 34.6941 47.5326 34.9267V34.9843L43.6701 34.9844L43.67 33.1555Z" fill="#2F2E41"/>
<path d="M45.366 32.1139C45.3521 32.1139 45.3381 32.1131 45.324 32.1115L43.6662 31.9693C43.5992 31.962 43.5345 31.9366 43.4771 31.8952C43.4197 31.8537 43.3711 31.7973 43.3352 31.7302C43.2992 31.6631 43.2768 31.5872 43.2697 31.5083C43.2625 31.4295 43.2709 31.3497 43.294 31.2752L45.5127 25.4023C45.5285 25.3499 45.535 25.2943 45.5317 25.2388C45.5284 25.1834 45.5154 25.1293 45.4935 25.0801C45.4716 25.0303 45.4411 24.9864 45.4039 24.9515C45.3666 24.9166 45.3235 24.8914 45.2774 24.8775C44.2342 24.5562 41.5575 23.7006 39.2404 22.6996C38.2477 22.2707 37.6225 21.6509 37.3821 20.8574C37.0652 19.8113 37.534 18.8573 37.5541 18.8173L37.5698 18.7859L39.7502 19.0194L42.1138 19.2563L47.2937 22.5289C47.7277 22.8055 48.0574 23.2645 48.2171 23.8146C48.3768 24.3647 48.3547 24.9655 48.1553 25.4973L45.7673 31.8069C45.7327 31.8982 45.6764 31.9759 45.6052 32.0304C45.534 32.0848 45.4509 32.1139 45.366 32.1139Z" fill="#2F2E41"/>
<path d="M40.1293 7.40029C41.4547 7.40029 42.5291 6.13436 42.5291 4.57276C42.5291 3.01117 41.4547 1.74524 40.1293 1.74524C38.8039 1.74524 37.7295 3.01117 37.7295 4.57276C37.7295 6.13436 38.8039 7.40029 40.1293 7.40029Z" fill="#FFB8B8"/>
<path d="M43.2916 33.9617H44.4895L45.0594 30.3011L43.2914 30.3013L43.2916 33.9617Z" fill="#FFB8B8"/>
<path d="M42.9861 33.5009L45.3451 33.5007H45.3452C45.5426 33.5007 45.7381 33.5465 45.9205 33.6356C46.1029 33.7246 46.2687 33.855 46.4083 34.0195C46.5479 34.184 46.6586 34.3793 46.7342 34.5942C46.8097 34.8091 46.8486 35.0394 46.8486 35.272V35.3296L42.9862 35.3298L42.9861 33.5009Z" fill="#2F2E41"/>
<path d="M44.6821 32.4592C44.6681 32.4592 44.6541 32.4584 44.64 32.4569L42.9823 32.3147C42.9152 32.3073 42.8505 32.282 42.7931 32.2405C42.7357 32.199 42.6872 32.1426 42.6512 32.0755C42.6152 32.0085 42.5928 31.9326 42.5857 31.8537C42.5786 31.7748 42.5869 31.695 42.6101 31.6205L44.8287 25.7476C44.8445 25.6953 44.851 25.6396 44.8477 25.5842C44.8444 25.5287 44.8314 25.4747 44.8095 25.4254C44.7877 25.3756 44.7571 25.3318 44.7199 25.2969C44.6827 25.2619 44.6396 25.2367 44.5935 25.2228C43.5502 24.9015 40.8735 24.046 38.5564 23.0449C37.5637 22.616 36.9385 21.9962 36.6981 21.2028C36.3813 20.1566 36.85 19.2026 36.8702 19.1626L36.8859 19.1312L39.0662 19.3647L41.4299 19.6016L46.6097 22.8743C47.0437 23.1508 47.3734 23.6099 47.5331 24.16C47.6928 24.71 47.6707 25.3108 47.4714 25.8426L45.0833 32.1522C45.0487 32.2436 44.9925 32.3212 44.9213 32.3757C44.8501 32.4302 44.767 32.4592 44.6821 32.4592Z" fill="#2F2E41"/>
<path d="M40.8694 9.00339L38.329 7.96729C38.329 7.96729 36.7342 9.41092 37.5003 12.9922C37.9003 14.8403 37.7838 16.7911 37.1681 18.555C37.094 18.7732 37.0085 18.9859 36.9122 19.1917C36.9122 19.1917 39.7458 23.221 42.3839 20.2278L41.3579 14.4141C41.3579 14.4141 42.9701 10.5575 40.8694 9.00339Z" fill="#EF0B0B"/>
<path d="M40.4272 7.49637C40.0856 6.89402 39.8161 6.05877 40.1921 5.48566C40.5633 4.91993 41.2954 5.00327 41.864 4.75294C42.6558 4.40427 43.115 3.30823 42.9718 2.32666C42.8286 1.34509 42.1598 0.531394 41.3631 0.198457C40.5664 -0.13448 39.668 -0.0262014 38.8879 0.357196C37.9275 0.829164 37.1036 1.74215 36.7581 2.89867C36.4127 4.05519 36.5973 5.4438 37.314 6.33273C38.0824 7.28575 39.2883 7.53973 40.4038 7.52432" fill="#D2ED2F"/>
<path d="M38.1949 2.35808C37.7645 2.7709 37.1079 2.58754 36.6459 2.22525C36.1839 1.86295 35.809 1.34706 35.3091 1.06301C34.4279 0.562232 33.3624 0.895133 32.5047 1.44983C31.6471 2.00453 30.8868 2.77086 29.9808 3.20616C29.0749 3.64145 27.9188 3.66297 27.2328 2.84103C27.064 3.41731 27.0502 4.04093 27.1933 4.6268C27.3364 5.21266 27.6294 5.73224 28.0324 6.11464C28.4354 6.49704 28.9287 6.72364 29.445 6.76352C29.9613 6.8034 30.4755 6.65461 30.9174 6.33747C31.91 5.62504 32.4583 4.1313 33.5717 3.73808C34.1878 3.52049 34.8494 3.69574 35.472 3.88556C36.0947 4.07537 36.744 4.28048 37.3724 4.11888C38.0008 3.95729 38.5886 3.29195 38.5086 2.54001L38.1949 2.35808Z" fill="#D2ED2F"/>
<path d="M51.7891 14.4239C51.7259 14.2591 51.6329 14.1126 51.5165 13.9948C51.4001 13.877 51.2632 13.7906 51.1154 13.7419C50.9677 13.6931 50.8126 13.6831 50.6612 13.7126C50.5098 13.7421 50.3657 13.8104 50.2392 13.9125L40.911 11.4458L40.795 14.1318L50.0008 15.7119C50.1606 15.9511 50.3893 16.113 50.6436 16.1667C50.8979 16.2205 51.1601 16.1625 51.3805 16.0038C51.6009 15.845 51.7643 15.5965 51.8396 15.3053C51.9149 15.0141 51.8969 14.7005 51.7891 14.4239Z" fill="#FFB8B8"/>
<path d="M42.5464 11.6926L41.9771 14.4117C41.9609 14.4891 41.9307 14.5615 41.8886 14.6238C41.8466 14.6862 41.7936 14.7372 41.7333 14.7733C41.673 14.8094 41.6068 14.8298 41.5392 14.833C41.4716 14.8362 41.4043 14.8222 41.3417 14.792L39.1489 13.7332C38.8132 13.6335 38.5248 13.381 38.3469 13.031C38.1691 12.6811 38.1163 12.2623 38.2002 11.8666C38.2841 11.4709 38.4978 11.1306 38.7945 10.9203C39.0911 10.71 39.4464 10.6469 39.7824 10.745L42.134 11.0077C42.2014 11.0153 42.2665 11.0398 42.3251 11.0797C42.3836 11.1196 42.4342 11.1739 42.4733 11.2389C42.5125 11.3039 42.5392 11.3781 42.5519 11.4564C42.5645 11.5346 42.5626 11.6152 42.5464 11.6926V11.6926Z" fill="#EF0B0B"/>
<path d="M50.7114 16.5579C51.0892 16.5579 51.3954 16.1971 51.3954 15.752C51.3954 15.307 51.0892 14.9462 50.7114 14.9462C50.3337 14.9462 50.0275 15.307 50.0275 15.752C50.0275 16.1971 50.3337 16.5579 50.7114 16.5579Z" fill="#A7A2F7"/>
<path d="M81 41.8849C80.9999 41.9154 80.9896 41.9446 80.9713 41.9662C80.953 41.9878 80.9282 41.9999 80.9023 42H0.0977081C0.0717943 42 0.0469418 41.9879 0.028618 41.9663C0.0102941 41.9447 0 41.9154 0 41.8849C0 41.8544 0.0102941 41.8251 0.028618 41.8035C0.0469418 41.7819 0.0717943 41.7698 0.0977081 41.7698H80.9023C80.9282 41.7699 80.953 41.782 80.9713 41.8036C80.9896 41.8252 80.9999 41.8544 81 41.8849Z" fill="#3F3D56"/>
</g>
<defs>
<filter id="filter0_d" x="3.0636" y="12.8784" width="19.2498" height="37.1217" filterUnits="userSpaceOnUse" color-interpolation-filters="sRGB">
<feFlood flood-opacity="0" result="BackgroundImageFix"/>
<feColorMatrix in="SourceAlpha" type="matrix" values="0 0 0 0 0 0 0 0 0 0 0 0 0 0 0 0 0 0 127 0" result="hardAlpha"/>
<feOffset dy="4"/>
<feGaussianBlur stdDeviation="2"/>
<feComposite in2="hardAlpha" operator="out"/>
<feColorMatrix type="matrix" values="0 0 0 0 0 0 0 0 0 0 0 0 0 0 0 0 0 0 0.25 0"/>
<feBlend mode="normal" in2="BackgroundImageFix" result="effect1_dropShadow"/>
<feBlend mode="normal" in="SourceGraphic" in2="effect1_dropShadow" result="shape"/>
</filter>
<clipPath id="clip0">
<rect width="81" height="42" fill="white"/>
</clipPath>
</defs>
</svg>
